<svg id="Layer_1" data-name="Layer 1" xmlns="http://www.w3.org/2000/svg" viewBox="0 0 187.46 187.92">
  <path d="M26,74.73a40.79,40.79,0,0,1-.42-4.18c0-.68-.05-1.36-.05-2" transform="translate(24.1 28.68)" fill="none" stroke="#5a7382" stroke-miterlimit="10" stroke-width="2"/>
  <path d="M67.35,109.49H66.5A41,41,0,0,1,26,74.73" transform="translate(24.1 28.68)" fill="none" stroke="#5a7382" stroke-miterlimit="10" stroke-width="2"/>
  <path d="M65.41,27.51H66.5a40.93,40.93,0,0,1,41,41" transform="translate(24.1 28.68)" fill="none" stroke="#5a7382" stroke-miterlimit="10" stroke-width="2"/>
  <path d="M90,35a11.86,11.86,0,0,0,6.5,2,8.48,8.48,0,0,0,6.18-2.66" transform="translate(24.1 28.68)" fill="none" stroke="#5a7382" stroke-miterlimit="10" stroke-width="2"/>
  <path d="M43,102a17.32,17.32,0,0,0-7-2,8,8,0,0,0-5.44,2.13C29,103.59,28,104.68,28,107" transform="translate(24.1 28.68)" fill="none" stroke="#5a7382" stroke-miterlimit="10" stroke-width="2"/>
  <path d="M22,107c.83,1.43,4.11,1,6.5-.4s3.33-3.17,2.5-4.6-3.11-2-5.5-.6S21.17,105.57,22,107Z" transform="translate(24.1 28.68)" fill="#5a7382" stroke="#5a7382" stroke-miterlimit="10" stroke-width="2"/>
  <path d="M32,74c0,3.87-2.51,6-5,6s-4-2.13-4-6,1.51-8,4-8S32,70.13,32,74Z" transform="translate(24.1 28.68)" fill="#5a7382" stroke="#5a7382" stroke-miterlimit="10" stroke-width="2"/>
  <path d="M101,62.39c.31-3.86,3-5.78,5.46-5.59s3.82,2.45,3.52,6.3-2.15,7.86-4.62,7.66S100.74,66.24,101,62.39Z" transform="translate(24.1 28.68)" fill="#5a7382" stroke="#5a7382" stroke-miterlimit="10" stroke-width="2"/>
  <path d="M110.09,30.48c-.9-1.39-4.15-.77-6.47.73s-3.16,3.33-2.26,4.72,3.2,1.82,5.52.32S111,31.87,110.09,30.48Z" transform="translate(24.1 28.68)" fill="#5a7382" stroke="#5a7382" stroke-miterlimit="10" stroke-width="2"/>
  <text transform="matrix(0.16, -1.01, 0.99, 0.15, 30.62, 89.6)" font-size="8.46" fill="#c14e3a" font-family="Calibri-Bold, Calibri" font-weight="700">•</text>
  <text transform="matrix(0.36, -0.96, 0.94, 0.35, 32.8, 78.91)" font-size="8.46" fill="#c14e3a" font-family="Calibri-Bold, Calibri" font-weight="700">M</text>
  <text transform="translate(38.5 65.96) rotate(-57.56) scale(1.02 1)" font-size="8.46" fill="#c14e3a" font-family="Calibri-Bold, Calibri" font-weight="700">A</text>
  <text transform="translate(45.39 56.3) rotate(-46.86) scale(1.02 1)" font-size="8.46" fill="#c14e3a" font-family="Calibri-Bold, Calibri" font-weight="700">R</text>
  <text transform="matrix(0.82, -0.61, 0.6, 0.8, 53.72, 48.33)" font-size="8.46" fill="#c14e3a" font-family="Calibri-Bold, Calibri" font-weight="700">T</text>
  <text transform="translate(62.78 42.24) rotate(-26.33) scale(1.02 1)" font-size="8.46" fill="#c14e3a" font-family="Calibri-Bold, Calibri" font-weight="700">H</text>
  <text transform="translate(73.88 37.47) rotate(-15.31) scale(1.02 1)" font-size="8.46" fill="#c14e3a" font-family="Calibri-Bold, Calibri" font-weight="700">A</text>
  <text transform="translate(85.49 35) rotate(-5.74) scale(1.02 1)" font-size="8.46" fill="#c14e3a" font-family="Calibri-Bold, Calibri" font-weight="700">’</text>
  <text transform="translate(94.41 34.57) rotate(3.08) scale(1.02 1)" font-size="8.46" fill="#c14e3a" font-family="Calibri-Bold, Calibri" font-weight="700">s</text>
  <text transform="translate(104.45 35.64) rotate(12.9) scale(1.02 1)" font-size="8.46" fill="#c14e3a" font-family="Calibri-Bold, Calibri" font-weight="700">•</text>
  <text transform="translate(114.98 38.71) rotate(22.18) scale(1.02 1)" font-size="8.46" fill="#c14e3a" font-family="Calibri-Bold, Calibri" font-weight="700"> </text>
  <text transform="matrix(0.88, 0.52, -0.51, 0.86, 122.78, 42.41)" font-size="8.46" fill="#c14e3a" font-family="Calibri-Bold, Calibri" font-weight="700"> </text>
  <text transform="translate(129.97 47.21) rotate(38.84) scale(1.02 1)" font-size="8.46" fill="#c14e3a" font-family="Calibri-Bold, Calibri" font-weight="700"> </text>
  <text transform="matrix(0.69, 0.75, -0.73, 0.68, 136.4, 53.01)" font-size="8.46" fill="#c14e3a" font-family="Calibri-Bold, Calibri" font-weight="700"> </text>
  <text transform="translate(141.91 59.67) rotate(55.43) scale(1.02 1)" font-size="8.46" fill="#c14e3a" font-family="Calibri-Bold, Calibri" font-weight="700"> </text>
  <text transform="translate(146.41 67.05) rotate(63.77) scale(1.02 1)" font-size="8.46" fill="#c14e3a" font-family="Calibri-Bold, Calibri" font-weight="700"> </text>
  <text transform="translate(149.79 75.01) rotate(72.14) scale(1.02 1)" font-size="8.46" fill="#c14e3a" font-family="Calibri-Bold, Calibri" font-weight="700"> </text>
  <text transform="translate(151.97 83.38) rotate(80.44) scale(1.02 1)" font-size="8.46" fill="#c14e3a" font-family="Calibri-Bold, Calibri" font-weight="700"> </text>
  <text transform="translate(152.93 91.98) rotate(88.64) scale(1.02 1)" font-size="8.46" fill="#c14e3a" font-family="Calibri-Bold, Calibri" font-weight="700"> </text>
  <text transform="matrix(-0.12, 1.01, -0.99, -0.12, 152.66, 100.64)" font-size="8.46" fill="#c14e3a" font-family="Calibri-Bold, Calibri" font-weight="700"> </text>
  <text transform="translate(151.22 109.15) rotate(105.82) scale(1.02 1)" font-size="8.46" fill="#c14e3a" font-family="Calibri-Bold, Calibri" font-weight="700">•</text>
  <text transform="translate(147.69 119.51) rotate(116.29) scale(1.02 1)" font-size="8.46" fill="#c14e3a" font-family="Calibri-Bold, Calibri" font-weight="700">V</text>
  <text transform="translate(141.89 129.74) rotate(125.84) scale(1.02 1)" font-size="8.46" fill="#c14e3a" font-family="Calibri-Bold, Calibri" font-weight="700">I</text>
  <text transform="translate(136.31 136.75) rotate(135.55) scale(1.02 1)" font-size="8.46" fill="#c14e3a" font-family="Calibri-Bold, Calibri" font-weight="700">N</text>
  <text transform="matrix(-0.85, 0.57, -0.56, -0.83, 127.04, 144.9)" font-size="8.46" fill="#c14e3a" font-family="Calibri-Bold, Calibri" font-weight="700">E</text>
  <text transform="translate(117.73 150.5) rotate(155.99) scale(1.02 1)" font-size="8.46" fill="#c14e3a" font-family="Calibri-Bold, Calibri" font-weight="700">Y</text>
  <text transform="translate(107.34 154.49) rotate(166.59) scale(1.02 1)" font-size="8.46" fill="#c14e3a" font-family="Calibri-Bold, Calibri" font-weight="700">A</text>
  <text transform="matrix(-1.02, 0.05, -0.05, -1, 95.66, 156.62)" font-size="8.46" fill="#c14e3a" font-family="Calibri-Bold, Calibri" font-weight="700">R</text>
  <text transform="matrix(-1.01, -0.15, 0.14, -0.99, 84.19, 156.54)" font-size="8.46" fill="#c14e3a" font-family="Calibri-Bold, Calibri" font-weight="700">D</text>
  <text transform="matrix(-0.96, -0.33, 0.33, -0.94, 72.35, 154.13)" font-size="8.46" fill="#c14e3a" font-family="Calibri-Bold, Calibri" font-weight="700">•</text>
  <text transform="translate(68.32 123.62)" font-size="73" fill="#3a445a" font-family="AvenirLTStd-Heavy, Avenir LT Std" font-weight="800">R</text>
</svg>
